<svg xmlns="http://www.w3.org/2000/svg" viewBox="0 0 480 480" role="img" aria-label="Prayer pose cartoon">
  <defs>
    <filter id="shadow" x="-20%" y="-20%" width="140%" height="140%">
      <feDropShadow dx="0" dy="8" stdDeviation="10" flood-color="#94a3b8" flood-opacity="0.28"/>
    </filter>
    <linearGradient id="bg" x1="0" y1="0" x2="1" y2="1">
      <stop offset="0%" stop-color="#f8fafc"/>
      <stop offset="100%" stop-color="#eef2ff"/>
    </linearGradient>
  </defs>
  <rect width="480" height="480" rx="40" fill="url(#bg)"/>
  <ellipse cx="240" cy="425" rx="140" ry="18" fill="#e2e8f0"/>
  <rect x="92" y="315" width="296" height="90" rx="22" fill="#c7d2fe" stroke="#6366f1" stroke-width="6"/>
  <rect x="105" y="328" width="270" height="64" rx="18" fill="#eef2ff" opacity="0.8"/>
  <circle cx="248" cy="118" r="33" fill="#f2c29b" stroke="#1f2937" stroke-width="4"/><path d="M 218 94 Q 248 62 278 94 L 272 76 L 224 76 Z" fill="#1f2937"/><circle cx="258" cy="116" r="4" fill="#1f2937"/><path d="M 242 130 Q 252 136 262 130" stroke="#1f2937" stroke-width="3" fill="none" stroke-linecap="round"/><path d="M 198 154 Q 248 136 292 154 L 304 228 Q 248 242 188 228 Z" fill="#dbeafe" stroke="#1f2937" stroke-width="4"/><path d="M 186 232 Q 240 214 288 232 L 316 304 Q 258 314 174 300 Z" fill="#dbeafe" stroke="#1f2937" stroke-width="4"/><path d="M 214 294 Q 240 270 266 294 L 286 332 Q 250 342 206 334 Z" fill="#dbeafe" stroke="#1f2937" stroke-width="4"/><path d="M 178 306 Q 186 280 206 272 L 214 324 Q 192 332 178 306 Z" fill="#1f2937"/><path d="M 282 300 Q 296 278 316 276 L 322 322 Q 300 334 282 300 Z" fill="#1f2937"/><line x1="210" y1="186" x2="214" y2="246" stroke="#e7ae84" stroke-width="14" stroke-linecap="round"/><line x1="282" y1="186" x2="286" y2="246" stroke="#e7ae84" stroke-width="14" stroke-linecap="round"/><ellipse cx="214" cy="252" rx="12" ry="9" fill="#f2c29b" stroke="#1f2937" stroke-width="3"/><ellipse cx="286" cy="252" rx="12" ry="9" fill="#f2c29b" stroke="#1f2937" stroke-width="3"/><line x1="294" y1="244" x2="304" y2="220" stroke="#e7ae84" stroke-width="6" stroke-linecap="round"/>
</svg>