<svg xmlns="http://www.w3.org/2000/svg" viewBox="0 0 480 480" role="img" aria-label="Prayer pose cartoon">
  <defs>
    <filter id="shadow" x="-20%" y="-20%" width="140%" height="140%">
      <feDropShadow dx="0" dy="8" stdDeviation="10" flood-color="#94a3b8" flood-opacity="0.28"/>
    </filter>
    <linearGradient id="bg" x1="0" y1="0" x2="1" y2="1">
      <stop offset="0%" stop-color="#f8fafc"/>
      <stop offset="100%" stop-color="#eef2ff"/>
    </linearGradient>
  </defs>
  <rect width="480" height="480" rx="40" fill="url(#bg)"/>
  <ellipse cx="240" cy="425" rx="140" ry="18" fill="#e2e8f0"/>
  <rect x="92" y="315" width="296" height="90" rx="22" fill="#c7d2fe" stroke="#6366f1" stroke-width="6"/>
  <rect x="105" y="328" width="270" height="64" rx="18" fill="#eef2ff" opacity="0.8"/>
  <circle cx="248" cy="116" r="33" fill="#f2c29b" stroke="#1f2937" stroke-width="4"/><path d="M 206 112 Q 222 62 248 58 Q 274 62 290 112 L 288 128 Q 278 172 248 180 Q 218 172 208 128 Z" fill="#b83280" stroke="#1f2937" stroke-width="4"/><path d="M 214 128 Q 248 162 282 128 Q 272 170 248 182 Q 224 170 214 128 Z" fill="#fce7f3" opacity="0.55"/><circle cx="256" cy="114" r="4" fill="#1f2937"/><path d="M 242 128 Q 252 134 262 128" stroke="#1f2937" stroke-width="3" fill="none" stroke-linecap="round"/><path d="M 184 156 Q 248 132 310 160 L 322 244 Q 250 264 172 242 Z" fill="#fce7f3" stroke="#1f2937" stroke-width="4"/><path d="M 178 238 Q 248 212 316 238 L 336 308 Q 252 322 166 304 Z" fill="#fce7f3" stroke="#1f2937" stroke-width="4"/><path d="M 210 302 Q 242 278 274 300 L 296 336 Q 252 348 198 338 Z" fill="#fce7f3" stroke="#1f2937" stroke-width="4"/><path d="M 170 308 Q 182 286 202 278 L 206 326 Q 184 336 170 308 Z" fill="#1f2937"/><path d="M 294 304 Q 310 286 330 286 L 332 328 Q 308 338 294 304 Z" fill="#1f2937"/><line x1="214" y1="194" x2="220" y2="252" stroke="#e7ae84" stroke-width="12" stroke-linecap="round"/><line x1="286" y1="194" x2="290" y2="252" stroke="#e7ae84" stroke-width="12" stroke-linecap="round"/><ellipse cx="220" cy="258" rx="11" ry="8" fill="#f2c29b" stroke="#1f2937" stroke-width="3"/><ellipse cx="290" cy="258" rx="11" ry="8" fill="#f2c29b" stroke="#1f2937" stroke-width="3"/>
</svg>